<svg xmlns="http://www.w3.org/2000/svg" viewBox="0 0 24 24">
  <defs>
    <linearGradient id="dBg" x1="0.5" y1="0" x2="0.5" y2="1">
      <stop offset="0%" stop-color="#34d399"/>
      <stop offset="100%" stop-color="#047857"/>
    </linearGradient>
    <linearGradient id="dAccent" x1="0" y1="0" x2="0" y2="1">
      <stop offset="0%" stop-color="#6ee7b7"/>
      <stop offset="100%" stop-color="#059669"/>
    </linearGradient>
  </defs>
  <rect x="3" y="6" width="18" height="12" rx="4" fill="url(#dBg)" stroke="#065f46" stroke-width="1.5" stroke-linejoin="round"/>
  <path d="M8 6 Q10 3 14 3 Q16 3 16 6" fill="none" stroke="#065f46" stroke-width="2" stroke-linecap="round"/>
  <path d="M7 6 L7 18 M17 6 L17 18" stroke="#065f46" stroke-width="1" opacity="0.4"/>
  <path d="M9 12 L15 12" stroke="#fff" stroke-width="2" opacity="0.5" stroke-linecap="round"/>
  <path d="M3 6 Q3 3 5 3 L19 3 Q21 3 21 6" fill="none" stroke="#065f46" stroke-width="1.5" stroke-linejoin="round"/>
  <rect x="9" y="9" width="6" height="6" rx="1" fill="url(#dAccent)" stroke="#065f46" stroke-width="0.6"/>
  <line x1="10" y1="11" x2="14" y2="11" stroke="#fff" stroke-width="0.8" opacity="0.4" stroke-linecap="round"/>
  <line x1="10" y1="13" x2="12" y2="13" stroke="#fff" stroke-width="0.8" opacity="0.4" stroke-linecap="round"/>
</svg>
