<svg xmlns="http://www.w3.org/2000/svg" viewBox="0 0 24 24">
  <defs>
    <linearGradient id="toolsBody" x1="0.5" y1="0" x2="0.5" y2="1">
      <stop offset="0%" stop-color="#a8a29e"/>
      <stop offset="100%" stop-color="#57534e"/>
    </linearGradient>
    <linearGradient id="toolsHandle" x1="0" y1="0" x2="1" y2="1">
      <stop offset="0%" stop-color="#ea580c"/>
      <stop offset="100%" stop-color="#c2410c"/>
    </linearGradient>
  </defs>
  <path d="M15.7 7.3a1 1 0 0 0 0 1.4l1.6 1.6a1 1 0 0 0 1.4 0l2.77-2.77a6 6 0 0 1-7.94 7.94l-5.91 5.91a2.12 2.12 0 0 1-3-3l5.91-5.91a6 6 0 0 1 7.94-7.94z" fill="url(#toolsBody)" stroke="#57534e" stroke-width="1.5" stroke-linejoin="round"/>
  <path d="M10 14l-5 5" stroke="#57534e" stroke-width="1.5" stroke-linecap="round"/>
  <circle cx="15" cy="9" r=".8" fill="#fff" opacity=".4"/>
</svg>
